<?xml version="1.0" encoding="UTF-8" standalone="no"?>
<!-- Created with Inkscape (http://www.inkscape.org/) -->

<svg
   xmlns:dc="http://purl.org/dc/elements/1.1/"
   xmlns:cc="http://creativecommons.org/ns#"
   xmlns:rdf="http://www.w3.org/1999/02/22-rdf-syntax-ns#"
   xmlns:svg="http://www.w3.org/2000/svg"
   xmlns="http://www.w3.org/2000/svg"
   xmlns:xlink="http://www.w3.org/1999/xlink"
   xmlns:sodipodi="http://sodipodi.sourceforge.net/DTD/sodipodi-0.dtd"
   xmlns:inkscape="http://www.inkscape.org/namespaces/inkscape"
   id="svg4190"
   version="1.1"
   inkscape:version="0.91 r13725"
   width="1363.0699"
   height="702.41382"
   viewBox="0 0 1363.0699 702.41382"
   sodipodi:docname="editor.svg"
   inkscape:export-filename="/home/hendrik/projects/openlf/doc/editor_points.png"
   inkscape:export-xdpi="89.995384"
   inkscape:export-ydpi="89.995384">
  <metadata
     id="metadata4196">
    <rdf:RDF>
      <cc:Work
         rdf:about="">
        <dc:format>image/svg+xml</dc:format>
        <dc:type
           rdf:resource="http://purl.org/dc/dcmitype/StillImage" />
        <dc:title></dc:title>
      </cc:Work>
    </rdf:RDF>
  </metadata>
  <defs
     id="defs4194">
    <filter
       inkscape:collect="always"
       style="color-interpolation-filters:sRGB"
       id="filter5101"
       x="-0.040800005"
       width="1.0816"
       y="-0.040799998"
       height="1.0816">
      <feGaussianBlur
         inkscape:collect="always"
         stdDeviation="0.90354328"
         id="feGaussianBlur5103" />
    </filter>
  </defs>
  <sodipodi:namedview
     pagecolor="#ffffff"
     bordercolor="#666666"
     borderopacity="1"
     objecttolerance="10"
     gridtolerance="10"
     guidetolerance="10"
     inkscape:pageopacity="0"
     inkscape:pageshadow="2"
     inkscape:window-width="1920"
     inkscape:window-height="1128"
     id="namedview4192"
     showgrid="false"
     inkscape:object-nodes="true"
     inkscape:snap-bbox="true"
     inkscape:bbox-nodes="true"
     inkscape:zoom="0.7593093"
     inkscape:cx="735.83974"
     inkscape:cy="296.99032"
     inkscape:window-x="0"
     inkscape:window-y="0"
     inkscape:window-maximized="1"
     inkscape:current-layer="svg4190"
     fit-margin-top="0"
     fit-margin-left="0"
     fit-margin-right="0"
     fit-margin-bottom="0">
    <inkscape:grid
       type="xygrid"
       id="grid4200"
       originx="22.069989"
       originy="0" />
  </sodipodi:namedview>
  <image
     sodipodi:absref="/home/hendrik/projects/openlf/doc/editor.png"
     xlink:href="editor.png"
     y="0"
     x="22.06999"
     id="image4198"
     style="image-rendering:optimizeQuality"
     preserveAspectRatio="none"
     height="702.41382"
     width="1341" />
  <g
     id="g5140"
     transform="translate(218.56374,-72.6375)">
    <path
       transform="matrix(0.68378641,0,0,0.68457205,-55.470986,53.794448)"
       style="opacity:0.40800003;fill:#000000;fill-opacity:1;fill-rule:nonzero;stroke:none;stroke-width:1;stroke-linecap:round;stroke-linejoin:miter;stroke-miterlimit:4;stroke-dasharray:none;stroke-dashoffset:0;stroke-opacity:1;filter:url(#filter5101)"
       d="m -199.08369,222.17028 c -3.20606,3.20606 -7.6352,5.18905 -12.52749,5.18905 -9.78457,0 -17.71653,-7.93197 -17.71653,-17.71654 0,-4.89229 1.98299,-9.32142 5.18905,-12.52748 7.49677,-6.68022 47.96055,-22.90559 47.96055,-22.90559 0,0 -16.43744,41.30121 -22.90558,47.96056 z"
       id="path4875"
       inkscape:connector-curvature="0"
       sodipodi:nodetypes="cssccc" />
    <path
       sodipodi:nodetypes="sssscs"
       inkscape:connector-curvature="0"
       id="path4872"
       d="m -192.72704,202.95625 c -2.23647,2.14961 -5.22085,3.55228 -8.56613,3.55228 -6.69056,0 -12.11432,-5.43001 -12.11432,-12.12825 0,-3.34913 1.3654,-6.37176 3.5482,-8.57596 6.88681,-6.95435 32.79477,-15.68053 32.79477,-15.68053 0,0 -9.21375,26.63412 -15.66252,32.83246 z"
       style="opacity:1;fill:#ffffc7;fill-opacity:1;fill-rule:nonzero;stroke:#000000;stroke-width:1;stroke-linecap:round;stroke-linejoin:miter;stroke-miterlimit:4;stroke-dasharray:none;stroke-dashoffset:0;stroke-opacity:1" />
    <text
       sodipodi:linespacing="125%"
       id="text5136"
       y="199.18475"
       x="-201.21527"
       style="font-style:normal;font-variant:normal;font-weight:normal;font-stretch:normal;font-size:15px;line-height:125%;font-family:'DejaVu Serif';-inkscape-font-specification:'DejaVu Serif';letter-spacing:0px;word-spacing:0px;fill:#000000;fill-opacity:1;stroke:none;stroke-width:1px;stroke-linecap:butt;stroke-linejoin:miter;stroke-opacity:1"
       xml:space="preserve"><tspan
         style="text-align:center;text-anchor:middle"
         y="199.18475"
         x="-201.21527"
         id="tspan5138"
         sodipodi:role="line">2</tspan></text>
  </g>
  <g
     transform="translate(213.90749,376.225)"
     id="g5146">
    <path
       sodipodi:nodetypes="cssccc"
       inkscape:connector-curvature="0"
       id="path5148"
       d="m -199.08369,222.17028 c -3.20606,3.20606 -7.6352,5.18905 -12.52749,5.18905 -9.78457,0 -17.71653,-7.93197 -17.71653,-17.71654 0,-4.89229 1.98299,-9.32142 5.18905,-12.52748 7.49677,-6.68022 47.96055,-22.90559 47.96055,-22.90559 0,0 -16.43744,41.30121 -22.90558,47.96056 z"
       style="opacity:0.40800003;fill:#000000;fill-opacity:1;fill-rule:nonzero;stroke:none;stroke-width:1;stroke-linecap:round;stroke-linejoin:miter;stroke-miterlimit:4;stroke-dasharray:none;stroke-dashoffset:0;stroke-opacity:1;filter:url(#filter5101)"
       transform="matrix(0.68378641,0,0,0.68457205,-55.470986,53.794448)" />
    <path
       style="opacity:1;fill:#ffffc7;fill-opacity:1;fill-rule:nonzero;stroke:#000000;stroke-width:1;stroke-linecap:round;stroke-linejoin:miter;stroke-miterlimit:4;stroke-dasharray:none;stroke-dashoffset:0;stroke-opacity:1"
       d="m -192.72704,202.95625 c -2.23647,2.14961 -5.22085,3.55228 -8.56613,3.55228 -6.69056,0 -12.11432,-5.43001 -12.11432,-12.12825 0,-3.34913 1.3654,-6.37176 3.5482,-8.57596 6.88681,-6.95435 32.79477,-15.68053 32.79477,-15.68053 0,0 -9.21375,26.63412 -15.66252,32.83246 z"
       id="path5150"
       inkscape:connector-curvature="0"
       sodipodi:nodetypes="sssscs" />
    <text
       xml:space="preserve"
       style="font-style:normal;font-variant:normal;font-weight:normal;font-stretch:normal;font-size:15px;line-height:125%;font-family:'DejaVu Serif';-inkscape-font-specification:'DejaVu Serif';letter-spacing:0px;word-spacing:0px;fill:#000000;fill-opacity:1;stroke:none;stroke-width:1px;stroke-linecap:butt;stroke-linejoin:miter;stroke-opacity:1"
       x="-201.21527"
       y="199.18475"
       id="text5152"
       sodipodi:linespacing="125%"><tspan
         sodipodi:role="line"
         id="tspan5154"
         x="-201.21527"
         y="199.18475"
         style="text-align:center;text-anchor:middle">9</tspan></text>
  </g>
  <g
     id="g5156"
     transform="translate(619.53929,-68.916397)">
    <path
       transform="matrix(0.68378641,0,0,0.68457205,-55.470986,53.794448)"
       style="opacity:0.40800003;fill:#000000;fill-opacity:1;fill-rule:nonzero;stroke:none;stroke-width:1;stroke-linecap:round;stroke-linejoin:miter;stroke-miterlimit:4;stroke-dasharray:none;stroke-dashoffset:0;stroke-opacity:1;filter:url(#filter5101)"
       d="m -199.08369,222.17028 c -3.20606,3.20606 -7.6352,5.18905 -12.52749,5.18905 -9.78457,0 -17.71653,-7.93197 -17.71653,-17.71654 0,-4.89229 1.98299,-9.32142 5.18905,-12.52748 7.49677,-6.68022 47.96055,-22.90559 47.96055,-22.90559 0,0 -16.43744,41.30121 -22.90558,47.96056 z"
       id="path5158"
       inkscape:connector-curvature="0"
       sodipodi:nodetypes="cssccc" />
    <path
       sodipodi:nodetypes="sssscs"
       inkscape:connector-curvature="0"
       id="path5160"
       d="m -192.72704,202.95625 c -2.23647,2.14961 -5.22085,3.55228 -8.56613,3.55228 -6.69056,0 -12.11432,-5.43001 -12.11432,-12.12825 0,-3.34913 1.3654,-6.37176 3.5482,-8.57596 6.88681,-6.95435 32.79477,-15.68053 32.79477,-15.68053 0,0 -9.21375,26.63412 -15.66252,32.83246 z"
       style="opacity:1;fill:#ffffc7;fill-opacity:1;fill-rule:nonzero;stroke:#000000;stroke-width:1;stroke-linecap:round;stroke-linejoin:miter;stroke-miterlimit:4;stroke-dasharray:none;stroke-dashoffset:0;stroke-opacity:1" />
    <text
       sodipodi:linespacing="125%"
       id="text5162"
       y="199.18475"
       x="-201.21527"
       style="font-style:normal;font-variant:normal;font-weight:normal;font-stretch:normal;font-size:15px;line-height:125%;font-family:'DejaVu Serif';-inkscape-font-specification:'DejaVu Serif';letter-spacing:0px;word-spacing:0px;fill:#000000;fill-opacity:1;stroke:none;stroke-width:1px;stroke-linecap:butt;stroke-linejoin:miter;stroke-opacity:1"
       xml:space="preserve"><tspan
         style="text-align:center;text-anchor:middle"
         y="199.18475"
         x="-201.21527"
         id="tspan5164"
         sodipodi:role="line">3</tspan></text>
  </g>
  <g
     transform="translate(481.25572,-5.7010508)"
     id="g5166">
    <path
       sodipodi:nodetypes="cssccc"
       inkscape:connector-curvature="0"
       id="path5168"
       d="m -199.08369,222.17028 c -3.20606,3.20606 -7.6352,5.18905 -12.52749,5.18905 -9.78457,0 -17.71653,-7.93197 -17.71653,-17.71654 0,-4.89229 1.98299,-9.32142 5.18905,-12.52748 7.49677,-6.68022 47.96055,-22.90559 47.96055,-22.90559 0,0 -16.43744,41.30121 -22.90558,47.96056 z"
       style="opacity:0.40800003;fill:#000000;fill-opacity:1;fill-rule:nonzero;stroke:none;stroke-width:1;stroke-linecap:round;stroke-linejoin:miter;stroke-miterlimit:4;stroke-dasharray:none;stroke-dashoffset:0;stroke-opacity:1;filter:url(#filter5101)"
       transform="matrix(0.68378641,0,0,0.68457205,-55.470986,53.794448)" />
    <path
       style="opacity:1;fill:#ffffc7;fill-opacity:1;fill-rule:nonzero;stroke:#000000;stroke-width:1;stroke-linecap:round;stroke-linejoin:miter;stroke-miterlimit:4;stroke-dasharray:none;stroke-dashoffset:0;stroke-opacity:1"
       d="m -192.72704,202.95625 c -2.23647,2.14961 -5.22085,3.55228 -8.56613,3.55228 -6.69056,0 -12.11432,-5.43001 -12.11432,-12.12825 0,-3.34913 1.3654,-6.37176 3.5482,-8.57596 6.88681,-6.95435 32.79477,-15.68053 32.79477,-15.68053 0,0 -9.21375,26.63412 -15.66252,32.83246 z"
       id="path5170"
       inkscape:connector-curvature="0"
       sodipodi:nodetypes="sssscs" />
    <text
       xml:space="preserve"
       style="font-style:normal;font-variant:normal;font-weight:normal;font-stretch:normal;font-size:15px;line-height:125%;font-family:'DejaVu Serif';-inkscape-font-specification:'DejaVu Serif';letter-spacing:0px;word-spacing:0px;fill:#000000;fill-opacity:1;stroke:none;stroke-width:1px;stroke-linecap:butt;stroke-linejoin:miter;stroke-opacity:1"
       x="-201.21527"
       y="199.18475"
       id="text5172"
       sodipodi:linespacing="125%"><tspan
         sodipodi:role="line"
         id="tspan5174"
         x="-201.21527"
         y="199.18475"
         style="text-align:center;text-anchor:middle">4</tspan></text>
  </g>
  <g
     id="g5176"
     transform="translate(973.80863,-74.184343)">
    <path
       transform="matrix(0.68378641,0,0,0.68457205,-55.470986,53.794448)"
       style="opacity:0.40800003;fill:#000000;fill-opacity:1;fill-rule:nonzero;stroke:none;stroke-width:1;stroke-linecap:round;stroke-linejoin:miter;stroke-miterlimit:4;stroke-dasharray:none;stroke-dashoffset:0;stroke-opacity:1;filter:url(#filter5101)"
       d="m -199.08369,222.17028 c -3.20606,3.20606 -7.6352,5.18905 -12.52749,5.18905 -9.78457,0 -17.71653,-7.93197 -17.71653,-17.71654 0,-4.89229 1.98299,-9.32142 5.18905,-12.52748 7.49677,-6.68022 47.96055,-22.90559 47.96055,-22.90559 0,0 -16.43744,41.30121 -22.90558,47.96056 z"
       id="path5178"
       inkscape:connector-curvature="0"
       sodipodi:nodetypes="cssccc" />
    <path
       sodipodi:nodetypes="sssscs"
       inkscape:connector-curvature="0"
       id="path5180"
       d="m -192.72704,202.95625 c -2.23647,2.14961 -5.22085,3.55228 -8.56613,3.55228 -6.69056,0 -12.11432,-5.43001 -12.11432,-12.12825 0,-3.34913 1.3654,-6.37176 3.5482,-8.57596 6.88681,-6.95435 32.79477,-15.68053 32.79477,-15.68053 0,0 -9.21375,26.63412 -15.66252,32.83246 z"
       style="opacity:1;fill:#ffffc7;fill-opacity:1;fill-rule:nonzero;stroke:#000000;stroke-width:1;stroke-linecap:round;stroke-linejoin:miter;stroke-miterlimit:4;stroke-dasharray:none;stroke-dashoffset:0;stroke-opacity:1" />
    <text
       sodipodi:linespacing="125%"
       id="text5182"
       y="199.18475"
       x="-201.21527"
       style="font-style:normal;font-variant:normal;font-weight:normal;font-stretch:normal;font-size:15px;line-height:125%;font-family:'DejaVu Serif';-inkscape-font-specification:'DejaVu Serif';letter-spacing:0px;word-spacing:0px;fill:#000000;fill-opacity:1;stroke:none;stroke-width:1px;stroke-linecap:butt;stroke-linejoin:miter;stroke-opacity:1"
       xml:space="preserve"><tspan
         style="text-align:center;text-anchor:middle"
         y="199.18475"
         x="-201.21527"
         id="tspan5184"
         sodipodi:role="line">5</tspan></text>
  </g>
  <g
     transform="translate(968.54068,307.74171)"
     id="g5186">
    <path
       sodipodi:nodetypes="cssccc"
       inkscape:connector-curvature="0"
       id="path5188"
       d="m -199.08369,222.17028 c -3.20606,3.20606 -7.6352,5.18905 -12.52749,5.18905 -9.78457,0 -17.71653,-7.93197 -17.71653,-17.71654 0,-4.89229 1.98299,-9.32142 5.18905,-12.52748 7.49677,-6.68022 47.96055,-22.90559 47.96055,-22.90559 0,0 -16.43744,41.30121 -22.90558,47.96056 z"
       style="opacity:0.40800003;fill:#000000;fill-opacity:1;fill-rule:nonzero;stroke:none;stroke-width:1;stroke-linecap:round;stroke-linejoin:miter;stroke-miterlimit:4;stroke-dasharray:none;stroke-dashoffset:0;stroke-opacity:1;filter:url(#filter5101)"
       transform="matrix(0.68378641,0,0,0.68457205,-55.470986,53.794448)" />
    <path
       style="opacity:1;fill:#ffffc7;fill-opacity:1;fill-rule:nonzero;stroke:#000000;stroke-width:1;stroke-linecap:round;stroke-linejoin:miter;stroke-miterlimit:4;stroke-dasharray:none;stroke-dashoffset:0;stroke-opacity:1"
       d="m -192.72704,202.95625 c -2.23647,2.14961 -5.22085,3.55228 -8.56613,3.55228 -6.69056,0 -12.11432,-5.43001 -12.11432,-12.12825 0,-3.34913 1.3654,-6.37176 3.5482,-8.57596 6.88681,-6.95435 32.79477,-15.68053 32.79477,-15.68053 0,0 -9.21375,26.63412 -15.66252,32.83246 z"
       id="path5190"
       inkscape:connector-curvature="0"
       sodipodi:nodetypes="sssscs" />
    <text
       xml:space="preserve"
       style="font-style:normal;font-variant:normal;font-weight:normal;font-stretch:normal;font-size:15px;line-height:125%;font-family:'DejaVu Serif';-inkscape-font-specification:'DejaVu Serif';letter-spacing:0px;word-spacing:0px;fill:#000000;fill-opacity:1;stroke:none;stroke-width:1px;stroke-linecap:butt;stroke-linejoin:miter;stroke-opacity:1"
       x="-201.21527"
       y="199.18475"
       id="text5192"
       sodipodi:linespacing="125%"><tspan
         sodipodi:role="line"
         id="tspan5194"
         x="-201.21527"
         y="199.18475"
         style="text-align:center;text-anchor:middle">10</tspan></text>
  </g>
  <g
     id="g5196"
     transform="translate(971.17465,436.80638)">
    <path
       transform="matrix(0.68378641,0,0,0.68457205,-55.470986,53.794448)"
       style="opacity:0.40800003;fill:#000000;fill-opacity:1;fill-rule:nonzero;stroke:none;stroke-width:1;stroke-linecap:round;stroke-linejoin:miter;stroke-miterlimit:4;stroke-dasharray:none;stroke-dashoffset:0;stroke-opacity:1;filter:url(#filter5101)"
       d="m -199.08369,222.17028 c -3.20606,3.20606 -7.6352,5.18905 -12.52749,5.18905 -9.78457,0 -17.71653,-7.93197 -17.71653,-17.71654 0,-4.89229 1.98299,-9.32142 5.18905,-12.52748 7.49677,-6.68022 47.96055,-22.90559 47.96055,-22.90559 0,0 -16.43744,41.30121 -22.90558,47.96056 z"
       id="path5198"
       inkscape:connector-curvature="0"
       sodipodi:nodetypes="cssccc" />
    <path
       sodipodi:nodetypes="sssscs"
       inkscape:connector-curvature="0"
       id="path5200"
       d="m -192.72704,202.95625 c -2.23647,2.14961 -5.22085,3.55228 -8.56613,3.55228 -6.69056,0 -12.11432,-5.43001 -12.11432,-12.12825 0,-3.34913 1.3654,-6.37176 3.5482,-8.57596 6.88681,-6.95435 32.79477,-15.68053 32.79477,-15.68053 0,0 -9.21375,26.63412 -15.66252,32.83246 z"
       style="opacity:1;fill:#ffffc7;fill-opacity:1;fill-rule:nonzero;stroke:#000000;stroke-width:1;stroke-linecap:round;stroke-linejoin:miter;stroke-miterlimit:4;stroke-dasharray:none;stroke-dashoffset:0;stroke-opacity:1" />
    <text
       sodipodi:linespacing="125%"
       id="text5202"
       y="199.18475"
       x="-201.21527"
       style="font-style:normal;font-variant:normal;font-weight:normal;font-stretch:normal;font-size:15px;line-height:125%;font-family:'DejaVu Serif';-inkscape-font-specification:'DejaVu Serif';letter-spacing:0px;word-spacing:0px;fill:#000000;fill-opacity:1;stroke:none;stroke-width:1px;stroke-linecap:butt;stroke-linejoin:miter;stroke-opacity:1"
       xml:space="preserve"><tspan
         style="text-align:center;text-anchor:middle"
         y="199.18475"
         x="-201.21527"
         id="tspan5204"
         sodipodi:role="line">11</tspan></text>
  </g>
  <g
     transform="translate(218.70628,-111.99123)"
     id="g5206">
    <path
       sodipodi:nodetypes="cssccc"
       inkscape:connector-curvature="0"
       id="path5208"
       d="m -199.08369,222.17028 c -3.20606,3.20606 -7.6352,5.18905 -12.52749,5.18905 -9.78457,0 -17.71653,-7.93197 -17.71653,-17.71654 0,-4.89229 1.98299,-9.32142 5.18905,-12.52748 7.49677,-6.68022 47.96055,-22.90559 47.96055,-22.90559 0,0 -16.43744,41.30121 -22.90558,47.96056 z"
       style="opacity:0.40800003;fill:#000000;fill-opacity:1;fill-rule:nonzero;stroke:none;stroke-width:1;stroke-linecap:round;stroke-linejoin:miter;stroke-miterlimit:4;stroke-dasharray:none;stroke-dashoffset:0;stroke-opacity:1;filter:url(#filter5101)"
       transform="matrix(0.68378641,0,0,0.68457205,-55.470986,53.794448)" />
    <path
       style="opacity:1;fill:#ffffc7;fill-opacity:1;fill-rule:nonzero;stroke:#000000;stroke-width:1;stroke-linecap:round;stroke-linejoin:miter;stroke-miterlimit:4;stroke-dasharray:none;stroke-dashoffset:0;stroke-opacity:1"
       d="m -192.72704,202.95625 c -2.23647,2.14961 -5.22085,3.55228 -8.56613,3.55228 -6.69056,0 -12.11432,-5.43001 -12.11432,-12.12825 0,-3.34913 1.3654,-6.37176 3.5482,-8.57596 6.88681,-6.95435 32.79477,-15.68053 32.79477,-15.68053 0,0 -9.21375,26.63412 -15.66252,32.83246 z"
       id="path5210"
       inkscape:connector-curvature="0"
       sodipodi:nodetypes="sssscs" />
    <text
       xml:space="preserve"
       style="font-style:normal;font-variant:normal;font-weight:normal;font-stretch:normal;font-size:15px;line-height:125%;font-family:'DejaVu Serif';-inkscape-font-specification:'DejaVu Serif';letter-spacing:0px;word-spacing:0px;fill:#000000;fill-opacity:1;stroke:none;stroke-width:1px;stroke-linecap:butt;stroke-linejoin:miter;stroke-opacity:1"
       x="-201.21527"
       y="199.18475"
       id="text5212"
       sodipodi:linespacing="125%"><tspan
         sodipodi:role="line"
         id="tspan5214"
         x="-201.21527"
         y="199.18475"
         style="text-align:center;text-anchor:middle">1</tspan></text>
  </g>
  <g
     id="g5216"
     transform="translate(494.29322,46.448949)">
    <path
       transform="matrix(0.68378641,0,0,0.68457205,-55.470986,53.794448)"
       style="opacity:0.40800003;fill:#000000;fill-opacity:1;fill-rule:nonzero;stroke:none;stroke-width:1;stroke-linecap:round;stroke-linejoin:miter;stroke-miterlimit:4;stroke-dasharray:none;stroke-dashoffset:0;stroke-opacity:1;filter:url(#filter5101)"
       d="m -199.08369,222.17028 c -3.20606,3.20606 -7.6352,5.18905 -12.52749,5.18905 -9.78457,0 -17.71653,-7.93197 -17.71653,-17.71654 0,-4.89229 1.98299,-9.32142 5.18905,-12.52748 7.49677,-6.68022 47.96055,-22.90559 47.96055,-22.90559 0,0 -16.43744,41.30121 -22.90558,47.96056 z"
       id="path5218"
       inkscape:connector-curvature="0"
       sodipodi:nodetypes="cssccc" />
    <path
       sodipodi:nodetypes="sssscs"
       inkscape:connector-curvature="0"
       id="path5220"
       d="m -192.72704,202.95625 c -2.23647,2.14961 -5.22085,3.55228 -8.56613,3.55228 -6.69056,0 -12.11432,-5.43001 -12.11432,-12.12825 0,-3.34913 1.3654,-6.37176 3.5482,-8.57596 6.88681,-6.95435 32.79477,-15.68053 32.79477,-15.68053 0,0 -9.21375,26.63412 -15.66252,32.83246 z"
       style="opacity:1;fill:#ffffc7;fill-opacity:1;fill-rule:nonzero;stroke:#000000;stroke-width:1;stroke-linecap:round;stroke-linejoin:miter;stroke-miterlimit:4;stroke-dasharray:none;stroke-dashoffset:0;stroke-opacity:1" />
    <text
       sodipodi:linespacing="125%"
       id="text5222"
       y="199.18475"
       x="-201.21527"
       style="font-style:normal;font-variant:normal;font-weight:normal;font-stretch:normal;font-size:15px;line-height:125%;font-family:'DejaVu Serif';-inkscape-font-specification:'DejaVu Serif';letter-spacing:0px;word-spacing:0px;fill:#000000;fill-opacity:1;stroke:none;stroke-width:1px;stroke-linecap:butt;stroke-linejoin:miter;stroke-opacity:1"
       xml:space="preserve"><tspan
         style="text-align:center;text-anchor:middle"
         y="199.18475"
         x="-201.21527"
         id="tspan5224"
         sodipodi:role="line">6</tspan></text>
  </g>
  <g
     id="g5226"
     transform="translate(768.00124,181.59375)">
    <path
       transform="matrix(0.68378641,0,0,0.68457205,-55.470986,53.794448)"
       style="opacity:0.40800003;fill:#000000;fill-opacity:1;fill-rule:nonzero;stroke:none;stroke-width:1;stroke-linecap:round;stroke-linejoin:miter;stroke-miterlimit:4;stroke-dasharray:none;stroke-dashoffset:0;stroke-opacity:1;filter:url(#filter5101)"
       d="m -199.08369,222.17028 c -3.20606,3.20606 -7.6352,5.18905 -12.52749,5.18905 -9.78457,0 -17.71653,-7.93197 -17.71653,-17.71654 0,-4.89229 1.98299,-9.32142 5.18905,-12.52748 7.49677,-6.68022 47.96055,-22.90559 47.96055,-22.90559 0,0 -16.43744,41.30121 -22.90558,47.96056 z"
       id="path5228"
       inkscape:connector-curvature="0"
       sodipodi:nodetypes="cssccc" />
    <path
       sodipodi:nodetypes="sssscs"
       inkscape:connector-curvature="0"
       id="path5230"
       d="m -192.72704,202.95625 c -2.23647,2.14961 -5.22085,3.55228 -8.56613,3.55228 -6.69056,0 -12.11432,-5.43001 -12.11432,-12.12825 0,-3.34913 1.3654,-6.37176 3.5482,-8.57596 6.88681,-6.95435 32.79477,-15.68053 32.79477,-15.68053 0,0 -9.21375,26.63412 -15.66252,32.83246 z"
       style="opacity:1;fill:#ffffc7;fill-opacity:1;fill-rule:nonzero;stroke:#000000;stroke-width:1;stroke-linecap:round;stroke-linejoin:miter;stroke-miterlimit:4;stroke-dasharray:none;stroke-dashoffset:0;stroke-opacity:1" />
    <text
       sodipodi:linespacing="125%"
       id="text5232"
       y="199.18475"
       x="-201.21527"
       style="font-style:normal;font-variant:normal;font-weight:normal;font-stretch:normal;font-size:15px;line-height:125%;font-family:'DejaVu Serif';-inkscape-font-specification:'DejaVu Serif';letter-spacing:0px;word-spacing:0px;fill:#000000;fill-opacity:1;stroke:none;stroke-width:1px;stroke-linecap:butt;stroke-linejoin:miter;stroke-opacity:1"
       xml:space="preserve"><tspan
         style="text-align:center;text-anchor:middle"
         y="199.18475"
         x="-201.21527"
         id="tspan5234"
         sodipodi:role="line">7</tspan></text>
  </g>
  <g
     transform="translate(851.81374,153.65625)"
     id="g5236">
    <path
       sodipodi:nodetypes="cssccc"
       inkscape:connector-curvature="0"
       id="path5238"
       d="m -199.08369,222.17028 c -3.20606,3.20606 -7.6352,5.18905 -12.52749,5.18905 -9.78457,0 -17.71653,-7.93197 -17.71653,-17.71654 0,-4.89229 1.98299,-9.32142 5.18905,-12.52748 7.49677,-6.68022 47.96055,-22.90559 47.96055,-22.90559 0,0 -16.43744,41.30121 -22.90558,47.96056 z"
       style="opacity:0.40800003;fill:#000000;fill-opacity:1;fill-rule:nonzero;stroke:none;stroke-width:1;stroke-linecap:round;stroke-linejoin:miter;stroke-miterlimit:4;stroke-dasharray:none;stroke-dashoffset:0;stroke-opacity:1;filter:url(#filter5101)"
       transform="matrix(0.68378641,0,0,0.68457205,-55.470986,53.794448)" />
    <path
       style="opacity:1;fill:#ffffc7;fill-opacity:1;fill-rule:nonzero;stroke:#000000;stroke-width:1;stroke-linecap:round;stroke-linejoin:miter;stroke-miterlimit:4;stroke-dasharray:none;stroke-dashoffset:0;stroke-opacity:1"
       d="m -192.72704,202.95625 c -2.23647,2.14961 -5.22085,3.55228 -8.56613,3.55228 -6.69056,0 -12.11432,-5.43001 -12.11432,-12.12825 0,-3.34913 1.3654,-6.37176 3.5482,-8.57596 6.88681,-6.95435 32.79477,-15.68053 32.79477,-15.68053 0,0 -9.21375,26.63412 -15.66252,32.83246 z"
       id="path5240"
       inkscape:connector-curvature="0"
       sodipodi:nodetypes="sssscs" />
    <text
       xml:space="preserve"
       style="font-style:normal;font-variant:normal;font-weight:normal;font-stretch:normal;font-size:15px;line-height:125%;font-family:'DejaVu Serif';-inkscape-font-specification:'DejaVu Serif';letter-spacing:0px;word-spacing:0px;fill:#000000;fill-opacity:1;stroke:none;stroke-width:1px;stroke-linecap:butt;stroke-linejoin:miter;stroke-opacity:1"
       x="-201.21527"
       y="199.18475"
       id="text5242"
       sodipodi:linespacing="125%"><tspan
         sodipodi:role="line"
         id="tspan5244"
         x="-201.21527"
         y="199.18475"
         style="text-align:center;text-anchor:middle">8</tspan></text>
  </g>
</svg>
